<!DOCTYPE svg PUBLIC "-//W3C//DTD SVG 1.1//EN" "http://www.w3.org/Graphics/SVG/1.1/DTD/svg11.dtd">
<!-- Uploaded to: SVG Repo, www.svgrepo.com, Transformed by: SVG Repo Mixer Tools -->
<svg fill="#000000" height="256px" width="256px" version="1.1" id="Layer_1" xmlns="http://www.w3.org/2000/svg" xmlns:xlink="http://www.w3.org/1999/xlink" viewBox="0 0 512 512" xml:space="preserve">
<g id="SVGRepo_bgCarrier" stroke-width="0"/>
<g id="SVGRepo_tracerCarrier" stroke-linecap="round" stroke-linejoin="round"/>
<g id="SVGRepo_iconCarrier"> <g> <g> <path d="M399.887,248.281c-11.483,12.266-19.629,29.405-24.301,51.083H272.695v-28.545h105.304L398.871,0H113.128L134,270.818 h105.304v28.545H136.413c-4.673-21.678-12.818-38.816-24.301-51.083c-12.97-13.854-30.285-21.177-50.071-21.177v33.391 c10.737,0,18.892,3.359,25.66,10.568c14.6,15.553,18.932,45.397,19.712,65.368v13.346c-0.022,0.463-0.047,0.914-0.072,1.335 l0.072,0.004v53.898h131.891v44.099c-26.686,5.431-49.384,23.678-60.24,49.545l30.789,12.921 c5.59-13.319,16.396-23.274,29.451-27.898V512h33.391v-28.317c13.055,4.625,23.861,14.58,29.451,27.898l30.789-12.921 c-10.857-25.868-33.554-44.115-60.24-49.545v-44.099h131.892V351.12l0.072-0.004c-0.027-0.421-0.05-0.872-0.072-1.335v-13.346 c0.78-19.971,5.112-49.815,19.712-65.368c6.768-7.21,14.921-10.568,25.66-10.568v-33.391 C430.172,227.104,412.858,234.427,399.887,248.281z"/> </g> </g> </g>
</svg>